<svg width="278" height="422" viewBox="0 0 278 422" fill="none" xmlns="http://www.w3.org/2000/svg">
<path fill-rule="evenodd" clip-rule="evenodd" d="M124.084 273.666C123.607 278.64 124.582 283.39 126.904 287.405L127.659 288.712L126.221 289.215C123.604 290.13 120.694 290.575 117.325 290.575C113.857 290.575 110.251 290.092 107.353 289.704L105.498 289.455L106.409 287.844C107.142 286.549 107.278 284.979 107.422 283.318C107.46 282.871 107.5 282.41 107.553 281.953C110.298 257.412 113.769 232.551 117.125 208.509C118.008 202.182 118.921 195.64 119.807 189.205L122.349 189.303C123.033 201.214 123.696 213.327 124.337 225.041C124.62 230.192 124.902 235.343 125.186 240.493C126.2 253.515 125.85 264.058 124.084 273.666ZM123.047 420.829C126.779 420.829 130.518 420.44 134.161 419.674C145.559 417.281 155.914 411.636 164.725 406.533C165.175 406.278 165.632 406.023 166.1 405.761C169.55 403.831 173.843 401.429 176.533 398.5C179.485 395.286 179.993 392.084 178.132 388.422L177.837 387.842L178.145 387.27C180.072 383.683 179.929 379.245 177.797 376.478L176.005 374.153L178.951 374.466C181.922 374.781 184.916 375.208 187.811 375.621C191.024 376.079 194.347 376.553 197.619 376.87L198.528 376.959L198.737 377.835C198.854 378.323 198.997 378.619 200.007 378.619C200.882 378.619 202.058 378.362 203.303 378.091C204.849 377.755 206.6 377.373 208.289 377.373C209.032 377.373 209.7 377.444 210.332 377.59L210.699 377.674L210.961 377.942C211.129 378.114 211.413 378.22 211.704 378.22C211.925 378.22 212.129 378.159 212.265 378.052L212.678 377.729L213.201 377.787C222.323 378.788 230.189 380.546 237.247 383.16L237.279 383.172L237.433 383.238C239.985 384.34 242.623 385.479 245.027 385.479C246.783 385.479 248.21 384.881 249.516 383.598L249.886 383.236L250.406 383.231C255.691 383.182 258.105 377.02 258.439 372.89L258.481 372.37L258.884 372.032C268.093 364.304 273.529 353.69 275.505 339.583C277.304 326.734 275.923 313.187 274.334 301.629C270.659 271.676 266.827 244.825 257.084 219.359L256.629 218.168L257.842 217.733C262.05 216.221 265.265 214.417 267.673 212.217L267.84 212.065L268.05 211.978C271.501 210.561 273.191 205.327 273.627 203.757L273.662 203.63L273.723 203.514C274.427 202.163 274.589 200.284 274.168 198.359L274.123 198.151L274.149 197.94C274.377 196.112 273.622 194.201 272.823 192.177C272.458 191.253 272.08 190.297 271.805 189.346C270.857 186.626 269.91 183.858 268.994 181.181C266.939 175.174 264.814 168.963 262.551 162.922L262.241 162.095L262.923 161.526C264.087 160.553 263.698 159.409 262.02 156.672C261.623 156.025 261.248 155.413 260.962 154.811C258.81 151.092 256.504 147.523 254.106 144.2L254.057 144.132L254.017 144.058C241.713 121.078 219.888 108.423 192.562 108.423L192.005 108.424L191.697 108.239C186.575 105.159 182.919 99.8744 180.52 92.0837L180.443 91.8353L180.473 91.5773C180.555 90.8593 180.645 89.9178 180.614 89.0043C180.536 86.6908 179.629 84.6263 178.127 83.34C175.275 80.8996 170.947 80.6953 166.758 80.6953H166.156C160.8 80.7116 157.019 81.6415 154.256 83.6232C151.046 85.9256 149.272 89.6422 148.833 94.9853C148.701 96.5842 148.706 98.2405 148.71 99.8423L148.711 100.289L148.657 100.467C148.272 101.737 147.821 102.957 147.317 104.094L146.798 105.263L145.619 104.736C144.856 104.395 143.889 104.22 142.662 104.2C142.308 104.192 141.963 104.188 141.614 104.188C138.765 104.188 135.717 104.448 132.769 104.7C130.548 104.889 128.251 105.086 126.027 105.173L125.997 105.174C125.997 105.174 125.69 105.172 125.552 105.172C120.149 105.172 116.231 106.022 113.225 107.847C109.987 109.811 107.659 112.964 105.899 117.769C96.4581 145.312 92.5766 174.979 89.1529 201.153C87.2109 214.841 86.6202 228.873 86.049 242.443C85.4458 256.766 84.8224 271.577 82.6146 286.055L82.4403 287.2L81.2679 287.124C76.1087 286.791 70.5335 286.074 64.631 285.314C55.6629 284.161 46.3895 282.968 37.4248 282.968C24.8904 282.968 15.3866 285.434 8.37505 290.507C3.4869 295.113 0.958098 301.35 1.062 308.547C1.20891 318.717 6.58784 329.96 14.7654 337.19L14.7962 337.219C25.1327 346.984 44.0006 355.453 70.8757 362.392C95.589 368.773 121.152 372.24 134.19 373.739L137.417 374.11L134.798 376.004C133.738 376.771 132.77 377.445 131.841 378.067L131.241 378.468L130.584 378.167C128.71 377.308 127.52 377.127 126.851 377.127C126.258 377.127 125.542 377.256 125.503 377.87C125.477 378.272 125.763 378.869 126.367 378.945L129.575 379.345L126.956 381.213C125.206 382.461 122.596 383.964 119.574 385.706C109.686 391.403 94.7439 400.012 97.3138 407.573L97.4824 408.07L97.2435 408.538C96.553 409.891 96.4941 411.148 97.0638 412.379C98.2839 415.018 102.1 417.02 105.342 417.835L105.397 417.849L105.451 417.868C111.091 419.833 117.011 420.829 123.047 420.829Z" fill="#FFDBB4"/>
<path fill-rule="evenodd" clip-rule="evenodd" d="M148.507 364.051C148.407 363.895 148.317 363.677 148.268 363.484C147.584 364.458 136.642 374.047 125.821 382.187C115.771 389.747 104.243 395.458 99.768 401.761C98.0673 404.156 97.2029 411.176 97.53 412.355C98.0174 412.974 100.943 414.67 106.307 417.445C108.125 417.937 122.716 421.894 129.197 420.547C131.582 420.185 148.774 414.682 150.946 413.698L169.42 402.978C169.824 402.801 170.226 402.624 170.625 402.45L171.165 402.234C175.285 400.585 180.541 397.091 179.465 392.054C178.199 386.871 180.47 385.738 179.95 382.323C179.5 379.368 178.518 376.359 176.948 373.491C170.884 380.311 163.187 379.715 159.31 371.238L159.221 371.065L159.134 370.892C157.866 368.363 156.667 365.15 153.666 364.155C152.009 363.036 149.891 362.803 148.507 364.051ZM203.919 345.028L203.544 345.89C201.72 350.063 197.847 358.735 196.309 362.156C196.651 361.522 197.043 360.914 197.484 360.339C198.772 358.661 197.261 363.734 197.249 369.029C197.238 373.941 198.755 379.043 199.104 379.128C199.534 379.233 205.534 376.283 211.158 377.179C215.699 377.901 222.585 378.716 229.425 380.583C234.984 382.101 240.514 384.676 244.731 385.551C248.158 386.261 248.827 382.549 251.066 382.778C253.083 382.985 253.408 382.936 253.907 382.519C256.707 380.203 259.353 371.054 259.089 367.616C256.766 349.397 220.895 343.524 203.919 345.028Z" fill="white"/>
<path fill-rule="evenodd" clip-rule="evenodd" d="M143.802 103.052L139.514 103.203L139.136 103.219C137.706 103.28 136.221 103.384 134.128 103.558L133.557 103.606L129.425 104.264C128.165 104.463 126.983 104.649 125.841 104.827L123.596 105.175L120.936 105.582L120.643 105.629C116.66 106.272 113.932 107.241 111.678 109.204L111.579 109.291L111.535 109.33L111.495 109.372C108.052 112.913 105.454 118.482 103.338 126.084L103.2 126.584L103.075 127.042C102.189 130.333 99.9284 141.77 96.2937 161.353L98.1633 161.495C98.3921 161.512 98.6186 161.532 98.8428 161.556C105.561 162.259 113.432 166.117 118.592 171.093C118.901 171.391 119.211 171.703 119.52 172.027L119.705 172.224L121.368 174.002C125.2 232.901 126.827 264.45 126.25 268.649L126.205 268.973L126.153 269.21C124.053 278.86 124.998 286.218 129.106 290.896L129.231 291.037L129.361 291.179C133.711 295.869 141.098 297.42 151.245 295.826C151.384 295.804 151.522 295.782 151.658 295.759L153.339 295.476L153.152 293.688L153.122 293.392C151.791 280.269 152.032 268.788 154.27 258.622C156.858 246.868 162.062 237.312 170.334 230.159L170.585 229.943L170.621 229.912L171.254 230.769L172.968 229.31C183.873 220.043 202.9 204.851 230.049 183.733L223.519 174.368L223.53 174.356C223.595 174.293 223.685 174.216 223.801 174.126L223.908 174.046L223.96 174.007C224.571 173.563 250.617 161.892 258.362 160.596L258.737 160.534L259.111 160.474L259.414 160.427L259.89 160.354L261.876 160.055L261.137 158.187C261.038 157.937 260.937 157.686 260.836 157.433C259.138 153.205 257.44 152.446 255.602 148.961L255.45 148.675L255.148 148.064C251.056 139.888 245.36 128.026 233.132 120.086C216.737 109.44 197.776 107.841 197.667 107.9C195.824 114.576 192.955 120.271 189.058 124.983C185.259 129.576 178.07 133.546 175.304 134.488L175.091 134.559L174.872 134.631C167.503 137.038 159.46 137.03 152.704 134.536L152.538 134.474L152.434 134.429C148.497 132.674 145.696 129.599 143.899 125.362L143.837 125.213L143.776 125.064C141.759 120.118 141.152 113.834 141.725 107.1L141.745 106.865L141.776 106.529L141.778 106.508L143.802 103.052ZM257.642 217.696L257.022 217.895L256.6 218.028C254.43 218.71 251.535 219.931 247.88 220.93L244.032 221.98C242.98 222.269 242.169 222.496 241.373 222.723L240.181 223.066L239.654 223.221L237.598 223.838L238.665 225.602L239.09 226.306C250.9 245.947 260.714 267.007 268.414 289.105C269.002 290.791 269.579 292.49 270.146 294.199L270.484 295.225L273.586 294.529C273.31 292.319 273.029 290.169 272.74 288.065L272.602 287.069C272.16 283.903 271.673 280.642 271.134 277.224L270.964 276.151L270.858 275.388L270.789 274.892C269.67 266.979 268.32 260.172 265.355 246.704L263.943 240.302C262.846 235.303 260.746 227.767 257.642 217.696Z" fill="black"/>
<path fill-rule="evenodd" clip-rule="evenodd" d="M104.32 289.136C103.658 285.524 104.914 281.795 105.132 278.158C108.419 252.218 112.049 226.296 116.859 200.583C118.039 194.429 119.231 188.301 120.598 182.181C120.391 178.475 120.21 174.769 120.091 171.061C113.416 166.864 105.889 164.148 98.1053 162.779C96.0017 174.498 93.9002 186.21 92.4415 198.035C87.8957 227.303 90.489 257.084 86.0795 286.319C92.1968 287.005 98.2669 288.02 104.32 289.136ZM92.5792 311.937C97.1793 313.16 101.784 314.331 106.421 315.41C114.672 317.331 122.921 319.26 131.152 321.267C135.26 322.268 139.377 323.24 143.476 324.274C145.422 324.765 147.355 325.31 149.258 325.942C150.208 326.258 151.137 326.62 152.065 326.991C152.878 327.317 153.646 327.765 154.54 327.701C154.593 327.697 154.627 327.646 154.6 327.598C154.133 326.738 153.169 326.33 152.318 325.895C151.379 325.416 150.402 325.004 149.423 324.611C147.249 323.739 144.985 323.098 142.727 322.477C134.521 320.218 126.244 318.195 117.975 316.17C109.667 314.136 101.358 312.188 92.9401 310.648C92.0921 310.493 91.7252 311.71 92.5792 311.937ZM133.328 381.48C132.96 381.382 132.589 381.291 132.221 381.206C126.319 386.12 98.5226 398.88 100.637 406.501C101.384 407.449 103.173 407.665 104.303 407.971C106.273 408.504 108.261 408.966 110.269 409.331C116.759 410.511 123.481 410.717 129.962 409.37C132.346 409.008 134.499 407.99 136.671 407.007C143.689 403.92 151.417 400.509 158.401 397.447C167.274 393.93 182.836 386.998 176.435 375.302C170.371 382.122 162.674 381.526 158.797 373.049C157.46 370.476 156.293 367.007 153.153 365.966C151.496 364.847 149.378 364.614 147.994 365.862C147.894 365.706 147.804 365.488 147.755 365.295C146.195 367.516 144.849 369.855 143.02 371.885C143.648 371.919 150.185 376.757 148.256 376.759C145.935 375.564 143.629 374.568 141.123 373.924C139.307 375.75 137.31 377.449 135.24 379.02C137.25 380.348 139.056 381.973 140.508 383.737C140.633 383.892 140.48 384.094 140.292 384.009C138.038 383.005 135.719 382.122 133.328 381.48ZM103.409 414.437C125.985 424.578 149.885 413.286 169.137 401.248C173.58 398.766 179.425 395.249 178.526 389.408C175.254 394.196 169.858 396.923 164.68 399.287C155.98 403.219 147.223 407.026 138.502 410.91C137.678 413.642 133.739 413.747 131.358 414.354C120.762 416.409 109.371 415.388 99.3975 411.289C99.9747 412.999 101.863 413.783 103.409 414.437ZM193.482 374.951C194.039 375.023 194.597 375.088 195.155 375.151C195.098 374.412 195.542 373.674 196.258 373.446C195.936 371.881 195.817 370.264 195.99 368.676C195.057 371.086 192.047 370.354 190.134 369.66C187.403 368.917 184.688 368.118 181.988 367.267C180.923 369.245 179.795 371.193 178.409 372.984C183.455 373.433 188.454 374.324 193.482 374.951ZM195.702 367.371C195.836 367.655 196.028 367.955 196.032 368.295C196.168 367.122 196.435 365.964 196.839 364.855C196.46 365.694 196.081 366.533 195.702 367.371ZM198.887 361.086C201.37 357.85 205.958 355.205 210.2 356.107C210.472 356.166 210.479 356.604 210.2 356.659C204.502 357.433 199.499 361.952 199.301 367.795C198.851 370.44 200.691 373.037 200.071 375.574C200.195 375.583 200.318 375.589 200.439 375.597C200.484 375.767 200.525 375.918 200.578 376.05C199.963 376.153 199.782 377.143 200.508 377.319C200.938 377.424 201.387 377.479 201.845 377.502C204.168 376.875 206.618 376.73 208.839 375.803C211.036 374.832 210.487 372.103 211.262 370.214C211.831 368.034 212.484 365.864 213.308 363.773C213.368 363.605 213.596 363.643 213.615 363.813C214.196 367.984 214.177 372.227 214.036 376.432C214.799 376.51 215.557 376.596 216.317 376.69C216.268 375.515 219.792 361.206 221.648 364.878C220.713 368.915 220.601 373.133 220.501 377.288C226.013 378.196 231.445 379.549 236.729 381.39C240.453 382.518 244.882 385.857 248.497 382.839C251.297 380.524 252.24 376.484 251.976 373.047C248.335 352.709 219.579 350.333 202.603 351.837C200.999 355.537 199.366 359.224 197.712 362.902C198.055 362.269 198.447 361.661 198.887 361.086ZM256.786 372.651C257.097 368.032 256.32 362.284 252.898 358.842C245.067 352.221 234.102 350.138 224.316 347.741C219.758 346.841 215.137 346.243 210.498 345.946C208.852 345.815 206.761 346.189 205.599 344.842C205 346.26 204.394 347.676 203.787 349.091C223.268 346.539 263.915 355.406 252.532 382.095C254.942 379.483 256.539 376.304 256.786 372.651ZM270.387 287.164C269.842 283.2 269.246 279.24 268.616 275.287C266.039 256.378 260.714 237.974 257.54 219.192C252.044 220.979 246.417 222.34 240.868 223.949C252.892 243.945 262.726 265.178 270.387 287.164ZM225.239 268.558C226.297 263.532 227.482 258.411 228.021 253.303C228.045 253.073 227.692 253.049 227.629 253.251C226.746 256.079 226.144 259.012 225.4 261.88C224.652 264.758 223.957 267.65 223.221 270.531C222.986 271.451 222.75 272.37 222.514 273.29C222.373 273.296 222.232 273.301 222.092 273.304C221.553 273.317 221.391 273.993 221.825 274.275C221.951 274.357 222.078 274.429 222.206 274.494C219.952 283.261 217.642 292.008 215.122 300.709C212.185 310.847 208.878 320.863 206.235 331.083C206.174 331.32 206.284 331.485 206.444 331.556C205.069 336.207 203.917 340.919 202.661 345.605C202.399 346.58 203.84 347.213 204.333 346.299C205.091 344.892 205.259 342.969 205.63 341.423C206.049 339.681 206.446 337.936 206.843 336.189C207.474 333.412 208.041 330.6 208.508 327.783C210.248 323.412 211.806 318.987 213.185 314.48C216.272 304.385 219.121 294.222 221.656 283.978C222.405 280.955 223.139 277.927 223.839 274.891C227.026 274.941 230.357 271.335 233.559 273.254C233.708 273.343 233.858 273.141 233.741 273.023C232.464 271.729 230.699 271.616 228.985 271.936C227.87 272.144 226.802 272.539 225.711 272.836C225.231 272.968 224.738 273.064 224.239 273.135C224.583 271.611 224.918 270.086 225.239 268.558ZM156.57 363.708C158.199 364.773 159.527 366.348 160.464 368.041C166.469 383.75 172.89 375.335 180.868 366.906C174.117 364.358 165.174 362.449 159.996 357.384C159.099 359.624 158.003 361.757 156.57 363.708ZM158.718 325.39C159.24 322.805 159.669 320.205 160.06 317.598C160.435 315.099 161.021 312.421 160.926 309.89C160.922 309.789 160.78 309.772 160.749 309.867C159.938 312.389 159.695 315.179 159.18 317.777C158.682 320.288 158.135 322.791 157.583 325.291C156.451 330.425 154.851 335.48 153.882 340.644C153.778 341.197 154.526 341.392 154.729 340.874C156.669 335.936 157.674 330.568 158.718 325.39ZM268.533 208.936C271.156 206.111 273.217 202.504 272.819 198.676C271.243 196.575 270.721 193.834 269.804 191.405C266.216 181.241 262.886 171 258.981 160.946C250.675 163.5 242.504 166.564 234.796 170.589C233.378 171.313 231.975 172.063 230.589 172.842C229.136 173.655 227.552 175.069 225.811 174.664C227.714 177.359 231.634 180.163 232.296 183.278C232.439 184.264 231.74 185.178 230.667 184.958C213.871 196.889 196.524 208.569 180.647 221.86C168.758 231.273 159.63 238.907 155.552 254.18C152.804 264.073 152.795 274.412 153.2 284.584C153.278 286.562 153.28 288.586 153.44 290.576C153.202 292.066 153.655 295.096 155.329 295.151C155.291 295.511 155.171 295.845 154.982 296.139C155.035 296.21 155.09 296.277 155.148 296.346C155.231 295.939 155.312 295.534 155.389 295.128C156.691 289.356 156.866 282.659 156.649 276.514C156.557 274.752 159.259 274.794 159.41 276.514C159.817 281.159 160.224 285.805 160.63 290.448C161.118 293.458 160.349 297.395 162.755 299.683C165.202 297.422 164.393 292.963 164.273 290.046C164.082 285.287 163.875 280.53 163.698 275.771C163.643 274.264 166.141 273.876 166.424 275.409C167.227 279.779 168.095 284.138 169.03 288.483C169.594 290.163 169.982 297.701 172.801 296.392C174.481 295.245 173.269 288.519 173.491 286.292C173.386 281.883 173.325 277.481 173.001 273.083C172.869 271.308 175.758 270.931 176.154 272.663C176.797 275.467 177.412 278.271 177.97 281.094C179.195 285.853 178.75 292.305 183.17 295.467C184.901 283.106 182.41 270.83 182.06 258.513C182.269 254.521 182.955 250.57 183.559 246.627C184.228 242.267 184.618 237.521 183.053 233.316C183.481 231.432 185.163 236.527 185.32 236.95C186.587 234.454 189.672 234.261 192.112 233.483C197.535 231.728 203.091 230.404 208.577 228.844C223.128 224.803 237.696 220.824 252.268 216.854C258.089 215.243 264.217 213.337 268.533 208.936ZM122.823 274.689C124.83 263.806 124.775 252.779 123.917 241.776C122.974 224.712 122.058 207.644 121.079 190.583C116.827 221.464 112.294 252.309 108.828 283.288C108.581 285.444 108.619 287.726 107.531 289.649C113.544 290.455 119.953 291.266 125.799 289.222C123.234 284.786 122.329 279.735 122.823 274.689ZM253.328 148.502C243.193 127.695 222.528 112.923 199.351 109.702C199.326 109.727 199.298 109.752 199.273 109.779C199.349 109.849 199.42 109.924 199.483 110.002C198.86 109.543 198.004 110.119 198.281 110.755C197.938 111.537 197.685 112.342 197.367 113.131C197.233 113.118 197.097 113.106 196.961 113.085C195.585 115.816 194.84 118.964 193.403 121.686C185.537 135.314 166.128 140.847 151.569 135.346C140.016 130.339 138.376 116.084 139.411 105.126C139.464 104.387 139.839 103.865 140.34 103.557C134.039 104.566 127.739 105.583 121.432 106.541C118.394 107.003 115.273 107.67 112.926 109.756C103.692 119.259 102.044 144.832 98.9376 158.127C106.371 158.905 114.679 163.141 120.006 168.278C119.754 162.439 120.115 156.629 120.787 150.832C120.798 150.549 121.27 150.453 121.315 150.763C122.646 156.64 123.67 162.567 124.092 168.588C125.844 192.818 126.885 217.097 128.386 241.344C128.899 250.268 129.54 259.27 128.269 268.162C124.177 286.47 131.393 295.455 150.76 292.412C148.407 269.211 150.112 242.665 169.541 226.579C170.133 226.05 170.844 226.086 171.383 226.401C187.179 212.978 203.85 200.545 221.595 189.718C221.467 187.481 227.065 185.503 228.632 183.959C222.813 177.932 218.382 170.604 214.518 163.234C214.177 162.433 209.734 154.371 211.147 154.878C215.369 161.134 219.568 167.43 224.54 173.156C224.269 170.516 231.11 168.745 233.216 167.539C241.352 164.113 249.858 161.43 258.623 160.041C257.046 156.113 255.321 152.244 253.328 148.502ZM145.064 106.063C145.33 105.608 145.583 105.142 145.826 104.67C145.004 104.702 144.204 104.731 143.395 104.865C143.431 106.168 143.359 107.481 143.344 108.794C143.748 107.833 144.54 106.957 145.064 106.063ZM7.77067 289.475C27.1866 275.356 59.0776 284.352 81.5699 285.803C85.8581 257.684 84.1079 229.106 88.1046 200.941C91.7857 172.804 95.6672 144.274 104.912 117.315C108.728 106.891 115.328 103.796 126.195 103.88C131.71 103.664 137.542 102.781 142.901 102.907C144.076 102.925 145.305 103.081 146.365 103.555C147.855 100.195 148.665 96.5874 149.073 92.9527C149.099 92.722 149.393 92.6801 149.48 92.9003C150.741 96.0652 150.874 99.5194 150.189 102.833C149.693 105.207 146.74 114.551 143.31 110.895C143.037 118.561 144.721 127.716 152.231 131.694C165.353 137.416 183.491 132.206 191.092 120.063C192.562 117.636 193.829 115.054 195.455 112.724C184.122 109.515 177.76 95.9351 180.43 85.5933C182.08 93.6365 185.088 102.623 192.581 107.128C219.864 107.068 242.548 119.494 255.366 143.429C257.874 146.904 260.193 150.516 262.318 154.19C263.461 156.648 266.81 160.067 263.968 162.441C267.251 171.204 270.164 180.088 273.242 188.92C274.088 191.862 276.021 194.949 275.635 198.043C276.053 199.949 276.034 202.204 275.078 204.037C274.171 207.305 272.135 211.701 268.76 213.087C265.897 215.702 262.275 217.504 258.498 218.861C268.571 245.186 272.406 273.578 275.819 301.392C279.164 325.725 280.89 355.325 259.931 372.91C259.524 377.942 256.539 384.354 250.637 384.408C246.549 388.422 241.567 386.22 237.017 384.257C229.337 381.413 221.282 379.836 213.278 378.957C212.42 379.628 211.024 379.517 210.259 378.735C205.411 377.617 198.692 382.143 197.712 378.043C191.461 377.437 185.278 376.3 179.033 375.637C181.665 379.052 181.475 384.087 179.493 387.776C184.541 397.707 172.782 403.458 165.592 407.533C155.885 413.154 145.747 418.487 134.646 420.817C124.886 422.871 114.662 422.248 105.244 418.968C100.296 417.724 93.3849 413.641 96.321 407.888C92.599 396.94 118.737 385.595 126.425 380.113C123.283 379.721 123.168 373.198 131.341 376.946C132.329 376.285 133.3 375.603 134.261 374.909C101.199 371.109 38.0581 360.654 14.1305 338.053C0.985205 326.432 -6.59912 302.925 7.77067 289.475Z" fill="black"/>
<path fill-rule="evenodd" clip-rule="evenodd" d="M193.991 21.5901C192.889 20.4052 191.48 19.5225 189.94 19.2403C191.348 19.9453 192.724 20.6801 193.991 21.5901ZM196.15 31.8067C196.344 30.9037 196.475 29.992 196.516 29.0805C196.27 29.4557 195.877 29.7063 195.435 29.8357C195.721 30.476 195.963 31.1356 196.15 31.8067ZM122.419 45.9643C123.691 40.659 129.624 30.4545 131.027 28.4904C132.55 23.6272 124.244 19.7271 128.761 15.9241C130.806 14.2082 133.509 13.601 136.045 12.9925C153.601 8.76736 172.464 10.8982 188.746 18.6678C191.223 18.1455 193.803 19.1662 195.605 20.959C204.066 29.4817 192.535 44.859 190.013 54.4671C185.687 65.1804 194.599 66.9826 193.643 76.0471C192.9 80.73 188.167 81.9677 184.173 82.6754C183.533 82.8255 182.677 82.8481 182.47 83.5262C181.823 87.4846 179.605 91.2568 176.626 93.817C176.887 94.5903 176.688 95.529 175.769 96.2082C167.447 102.406 156.954 105.507 146.575 104.95C134.205 104.285 127.808 97.1804 126.265 95.351C117.73 83.8009 118.75 68.5616 120.491 54.7967C121.704 45.2078 120.166 55.3625 122.419 45.9643Z" fill="#FFDBB4"/>
<path fill-rule="evenodd" clip-rule="evenodd" d="M160.56 1.8188C160.171 0.600918 159.07 -0.131517 157.81 0.019654C156.695 0.151663 155.501 1.26096 155.637 2.48524C155.662 2.72157 155.696 2.94301 155.737 3.15167L155.731 3.15353L155.726 3.1538L155.754 3.2347C155.837 3.62434 155.951 3.97353 156.121 4.30355C156.338 4.93591 156.546 5.57041 156.752 6.20703C156.455 6.19426 156.151 6.21129 155.843 6.26878C155.524 5.45117 155.203 4.6357 154.885 3.81597C154.543 2.94088 154.303 1.81668 153.627 1.1396C152.762 0.275155 151.262 0.0963042 150.208 0.713764C149.095 1.36529 148.698 2.52356 148.94 3.76487C149.063 4.39804 149.485 4.83868 150.007 5.11554L150.064 5.14457L150.465 6.09844C150.342 6.04521 150.215 5.99624 150.077 5.95579C149.86 5.89191 149.647 5.85146 149.439 5.83442C148.865 4.79326 148.234 3.7819 147.582 2.78971C146.832 1.64847 145.366 1.16302 144.136 1.88481C143.035 2.52995 142.445 4.22477 143.233 5.33833C143.832 6.18361 144.399 7.04592 144.958 7.91676C144.863 7.93379 144.767 7.95508 144.676 7.98276C144.633 7.92527 144.588 7.86778 144.542 7.8103C143.932 7.05231 143.222 6.48382 142.494 5.85359C141.812 5.26168 141.497 4.33123 140.6 3.88197C139.472 3.31774 138.112 3.58815 137.441 4.71235C136.001 7.12045 138.418 8.87914 139.965 10.3376C138.62 9.4966 137.22 8.72797 135.784 8.06367C134.976 7.69106 134.156 7.33123 133.323 7.02037C132.089 6.56047 131.09 6.7076 130.077 7.56331C129.624 7.94656 129.399 8.78354 129.607 9.34117C130.011 10.41 130.648 11.0594 131.766 11.3681C132.552 11.5853 133.357 11.7322 134.144 11.9601C135.461 12.339 136.74 12.8011 137.981 13.3781C137.891 13.4334 137.806 13.4931 137.728 13.5612C136.802 13.261 135.858 13.0012 134.911 12.7798C133.339 12.4105 131.739 12.161 130.133 12.0049L129.599 11.9551C127.673 11.7699 125.357 11.4281 124.175 13.2759C123.786 13.8848 123.743 14.8898 124.175 15.4924C124.999 16.6506 125.819 16.8806 127.183 16.9019C125.84 17.0445 124.5 17.2212 123.165 17.4278C122.246 17.5683 121.326 17.7276 120.41 17.9043L119.953 17.9941C118.837 18.2177 117.592 18.3476 116.634 18.9948C114.543 20.4086 115.525 23.1616 117.841 23.4555C118.961 23.596 120.204 23.1212 121.302 22.8997C122.369 22.6847 123.439 22.4952 124.514 22.3291C125.071 22.2418 125.628 22.1652 126.187 22.0949C125.05 22.2589 123.922 22.4909 122.823 22.8188L122.518 22.9111C120.395 23.5597 117.528 24.5926 116.866 26.8664C116.464 28.2482 117.563 29.4533 118.893 29.5342C120.129 29.6088 121.16 28.8699 122.209 28.3249C122.974 27.9288 123.752 27.6329 124.576 27.3795C125.428 27.1176 126.297 26.9005 127.172 26.7237C126.433 27.1322 125.712 27.581 125.021 28.0832L124.703 28.3185C122.865 29.6911 120.062 31.816 120.709 34.3888C120.913 35.2 121.816 35.975 122.683 35.892C124.939 35.6812 126.184 33.2731 127.886 31.9828C128.33 31.6464 128.817 31.3142 129.327 30.9906C126.748 34.0736 124.695 37.6379 123.133 41.3192C119.701 49.4181 118.648 56.9184 118.623 65.6265L118.623 65.8963C118.619 70.6997 118.727 75.5904 119.194 80.3725C119.628 84.7905 120.422 89.1511 122.422 93.152C125.772 99.8608 132.301 105.086 139.502 107.074C147.514 109.289 156.47 107.558 163.033 102.448C164.707 101.145 162.487 98.3152 160.776 99.518C153.946 104.319 145.111 105.84 137.271 102.59C131.052 100.014 126.044 94.4719 123.922 88.0908C122.571 84.0312 122.177 79.7027 121.695 75.472L121.663 75.1901C121.153 70.7657 120.858 66.3114 120.862 61.8572C120.869 53.5854 122.054 46.7763 125.685 39.2731C127.393 35.7387 129.609 32.4706 132.257 29.6024C133.06 29.7663 133.914 29.5364 134.726 29.4491C135.14 29.4044 135.554 29.3618 135.969 29.3235C135.545 29.5977 135.13 29.8828 134.722 30.1746L134.187 30.5613C132.513 31.7631 130.388 33.132 130.818 35.4555C130.935 36.0836 131.56 36.6606 132.165 36.8032C134.36 37.327 135.869 35.1893 137.352 33.9203C138.641 32.8174 139.991 31.8295 141.365 30.8394C141.678 30.6159 141.992 30.3923 142.309 30.1709C142.011 30.5184 141.722 30.8713 141.44 31.2275L141.022 31.7575C139.76 33.3406 137.94 35.3983 139.064 37.4505C139.383 38.0296 140.063 38.415 140.722 38.4022C142.986 38.3554 143.887 35.7791 144.95 34.1524C145.863 32.7578 146.856 31.4441 147.882 30.1304C148.164 29.7706 148.449 29.4108 148.738 29.0509C153.495 29.2979 158.235 29.9281 162.893 30.9352C166.092 31.6272 169.239 32.5238 172.362 33.5052L172.622 33.5879C174.312 34.1333 176.054 34.8313 177.272 36.0282C177.446 36.8529 177.313 37.7226 177.146 38.5462L177.017 39.1766C176.482 41.8127 176.118 44.3999 176.391 47.1063C176.673 49.8977 177.513 52.4079 178.537 55.0013C179.021 56.2234 179.522 56.002 179.695 57.3136C179.826 58.3126 179.745 59.3439 179.655 60.3513L179.58 61.2053C179.391 63.4424 179.296 65.8815 180.759 67.7273C180.986 68.0105 181.473 67.8977 181.634 67.6145C181.698 67.5016 181.766 67.3931 181.841 67.2887C182.546 66.2646 183.627 65.6812 184.864 65.4555C185.021 65.4278 184.96 65.217 184.828 65.2C183.782 65.0765 182.792 65.3384 181.951 65.8792C182.35 64.4966 185.439 65.169 186.454 65.4377L186.489 65.447C187.756 65.7877 188.954 66.3413 190.01 67.1248C192.135 68.7004 193.363 71.1574 193.301 73.804C193.239 76.4059 191.899 78.8097 189.596 80.0552C188.484 80.6557 187.22 80.9452 185.962 80.9325C184.649 80.9197 183.481 80.3427 182.166 80.4236C181.405 80.4704 180.823 81.288 181.263 82.0013C181.556 82.4783 181.938 82.853 182.38 83.1404C181.303 85.6294 179.928 88.0035 178.343 90.1944C177.466 91.4101 176.471 92.5322 175.377 93.5563C174.523 94.3569 172.673 95.2831 172.777 96.6181C172.813 97.0993 173.061 97.3931 173.499 97.572C174.86 98.1294 176.514 96.2099 177.425 95.2845L177.498 95.2107C178.632 94.078 179.667 92.826 180.568 91.4974C182.166 89.1383 183.158 86.479 183.568 83.6855C185.75 84.3434 188.639 83.7259 190.42 82.919C196.016 80.3853 197.846 72.8331 194.444 67.804C193.785 66.831 192.961 65.9985 192.022 65.3256C192.228 65.2128 192.421 65.068 192.594 64.8849C193.546 63.8715 194.219 62.549 194.887 61.3301L194.967 61.1844C195.56 60.1113 196.119 59.0214 196.644 57.9146L196.839 57.4988C198.009 54.9757 199.036 53.8728 199.871 51.2199C200.674 48.6606 201.307 46.0524 201.717 43.3994L201.826 42.6972C202.063 41.1578 202.287 39.5117 202.114 37.9487C203.306 38.3384 204.504 38.579 205.684 37.9934C206.461 37.6081 206.89 36.4839 206.625 35.6769C206.432 35.0829 206.109 34.6166 205.699 34.2504C205.943 34.1269 206.172 33.9693 206.374 33.7947L206.551 33.6416C207.264 33.0197 207.315 31.838 206.882 31.0587C206.839 30.9842 206.797 30.9076 206.757 30.833C206.344 30.0942 205.492 29.6109 204.651 29.6237C204.515 29.6258 204.379 29.6258 204.241 29.6237C204.634 29.5364 205.019 29.4022 205.384 29.1765C207.033 28.1609 206.825 25.4079 204.83 24.9225C203.992 24.7202 203.068 24.8032 202.146 25.0204C202.18 25.0012 202.214 24.9821 202.248 24.9608C202.945 24.5328 203.529 23.6961 203.463 22.838C203.391 21.8884 203.085 21.2113 202.248 20.7131C201.521 20.283 200.493 20.2425 199.771 20.7131C199.144 21.124 198.53 21.5775 197.939 22.0651C198.532 21.3348 199.046 20.5406 199.254 19.6975C199.511 18.6478 199.082 17.5044 198.139 16.9508C197.387 16.5101 196.592 16.5591 195.883 16.8997C195.921 16.3483 195.787 15.7862 195.421 15.288C194.674 14.2662 193.314 13.6783 192.13 14.4235C191.975 14.5214 191.767 14.6897 191.565 14.8962C191.958 13.6421 191.603 12.3263 190.263 11.7599C189.445 11.4129 188.338 11.5874 187.628 12.1857C188.079 9.74359 184.481 7.94869 183.083 10.4718C182.766 11.0433 182.452 11.6452 182.171 12.2609L182.068 12.4923L182.057 12.4881L182.129 12.3188L182.202 12.1496C182.591 11.2447 183.086 10.3036 183.222 9.32201C183.421 7.86991 182.775 6.49234 181.199 6.27942C180.385 6.16871 179.48 6.53918 178.934 7.18666C179.229 4.93378 176.718 3.29645 174.91 4.9785C174.054 5.77481 173.597 6.93946 173.053 7.96147C172.745 8.53847 172.43 9.11335 172.122 9.69249C172.044 9.5988 171.959 9.50512 171.869 9.41356C172.326 8.04238 172.681 6.63712 172.981 5.22335C173.265 3.89049 172.6 2.50653 171.228 2.12988C169.981 1.78474 168.419 2.55571 168.141 3.88644C167.945 4.82307 167.713 5.74947 167.459 6.67119C167.284 6.62861 167.112 6.5988 166.942 6.57751C166.928 6.40433 166.912 6.23021 166.894 6.05704L166.827 5.44114C166.679 4.03387 166.529 2.42741 165.795 1.23115C164.543 -0.812853 161.335 0.0345581 161.301 2.45117C161.282 3.70099 161.79 4.94017 161.966 6.17722C162.043 6.7159 162.087 7.26097 162.113 7.80604C161.771 5.99624 161.301 4.20987 160.757 2.45117C160.694 2.24038 160.626 2.02959 160.56 1.8188ZM188.24 71.6089C185.425 71.1724 182.852 72.7459 181.184 74.9496C180.88 75.352 181.08 75.9205 181.354 76.259C181.552 76.5081 181.817 76.5379 182.117 76.5762C182.461 76.621 182.896 76.342 183.047 76.0418C184.12 73.8956 186.035 72.5393 188.24 71.7047C188.28 71.6898 188.293 71.6174 188.24 71.6089ZM184.337 33.1551L184.252 33.0633C183.683 32.4712 184.583 31.5668 185.154 32.1602C185.755 32.7849 186.154 33.5437 186.538 34.3127C186.904 35.046 185.805 35.6937 185.438 34.9577L185.27 34.6231C185.008 34.1029 184.727 33.589 184.337 33.1551ZM192.244 31.9398C191.436 31.8035 191.778 30.5722 192.582 30.7081C193.624 30.8839 194.661 31.0839 195.703 31.2599C196.51 31.3962 196.168 32.6275 195.364 32.4919C194.323 32.3158 193.285 32.1159 192.244 31.9398ZM144.148 23.5336C144.928 23.2728 145.262 24.5062 144.486 24.7655C143.415 25.1239 142.351 25.4912 141.335 25.9887C140.6 26.3482 139.953 25.2467 140.691 24.8856C141.807 24.3395 142.971 23.9271 144.148 23.5336ZM192.427 21.878C193.189 21.5726 193.52 22.8078 192.766 23.1099L190.012 24.2134C189.251 24.5188 188.92 23.2838 189.674 22.9817L192.427 21.878ZM134.533 18.8785L134.633 18.8149C135.324 18.3665 135.963 19.472 135.277 19.9181C134.873 20.1798 134.383 20.3573 134.014 20.6691L133.937 20.738C133.341 21.3022 132.438 20.4007 133.036 19.8346C133.473 19.4208 134.027 19.1904 134.533 18.8785Z" fill="black"/>
<path fill-rule="evenodd" clip-rule="evenodd" d="M141.389 92.8176C139.78 92.5936 138.049 91.6821 136.512 92.4228C135.793 92.769 135.452 93.9531 135.938 94.6112C136.68 95.6164 137.446 95.7827 138.651 95.8793C139.554 95.9517 140.461 95.957 141.362 95.8529L141.591 95.8249C143.198 95.6174 144.869 95.1689 146.114 94.0889C146.368 93.8679 146.238 93.3905 145.911 93.3215C144.432 93.0105 142.886 93.026 141.389 92.8176ZM143.283 89.1116C143.284 89.0986 143.264 89.0986 143.264 89.1116C143.225 90.0314 142.966 90.8842 142.488 91.6711C142.482 91.6824 142.499 91.6924 142.506 91.6813C142.984 90.8937 143.244 90.0323 143.283 89.1116ZM138.21 70.1281C136.602 71.1054 134.153 73.3843 135.882 75.8071C137.918 77.9435 140.849 75.494 142.294 74.3863C143.633 73.5277 145.138 75.7358 143.896 76.7383C133.458 84.4662 129.222 70.3837 137.397 68.9791C138.297 68.8243 138.631 69.8258 138.21 70.1281ZM129.981 59.1912C129.603 59.1912 129.242 59.3194 128.914 59.5565C128.59 59.7899 128.297 60.1305 128.053 60.5553C127.591 61.3592 127.302 62.4692 127.302 63.6965C127.302 64.9239 127.591 66.0339 128.053 66.8378C128.297 67.2626 128.59 67.6032 128.914 67.8366C129.242 68.0737 129.603 68.2019 129.981 68.2019C130.359 68.2019 130.72 68.0737 131.049 67.8366C131.372 67.6032 131.665 67.2626 131.909 66.8378C132.371 66.0339 132.66 64.9239 132.66 63.6965C132.66 62.4692 132.371 61.3592 131.909 60.5553C131.665 60.1305 131.372 59.7899 131.049 59.5565C130.72 59.3194 130.359 59.1912 129.981 59.1912ZM147.465 60.4431L147.323 60.4161C146.494 60.2653 146.075 60.3161 145.353 60.8813C144.81 61.306 144.965 62.1426 145.353 62.5893C146.027 63.3677 146.686 63.2298 147.61 63.2595L147.675 63.2619C148.445 63.2932 149.216 63.3151 149.987 63.3268C150.198 63.3302 150.409 63.3294 150.62 63.3307C150.597 65.2812 151.722 66.7663 153.203 67.8954C154.16 68.6255 155.371 67.7832 155.713 66.8745C155.995 66.1224 156.056 65.1977 155.909 64.3744C155.855 64.0709 155.742 63.7415 155.569 63.4605L155.52 63.3852L155.528 63.2774C155.53 63.2508 155.528 63.2251 155.529 63.1985C156.904 63.1149 158.271 62.977 159.637 62.8038L160.093 62.7447C161.259 62.5904 162.972 62.5407 163.916 61.7821C163.946 61.7579 163.935 61.7048 163.904 61.688C163.385 61.4086 162.858 61.4244 162.278 61.3986L162.195 61.3946C161.564 61.362 160.934 61.3349 160.303 61.3132L159.672 61.2935C158.058 61.2473 156.442 61.1689 154.829 61.0831C154.549 61.0682 154.268 61.0505 153.988 61.0333C153.694 60.9102 153.382 60.8366 153.073 60.8229C152.818 60.8114 152.572 60.8468 152.341 60.9202C151.752 60.8747 151.163 60.8251 150.575 60.7718L149.987 60.7173C149.157 60.6383 148.285 60.6038 147.465 60.4431ZM137.273 45.8241C135.499 44.9522 133.342 44.931 131.514 45.6525L131.393 45.7016C129.548 46.4674 127.324 48.2364 127.806 50.4398C128.246 52.4565 131.409 52.1148 131.57 50.2085C132.591 48.7935 134.881 48.4831 136.321 49.3828C137.194 49.9288 137.794 50.8479 138.203 51.775C138.553 52.5645 138.618 53.5394 139.155 54.2271C139.172 54.2495 139.207 54.2535 139.232 54.2476C140.832 53.8775 140.869 51.3359 140.596 50.1031C140.2 48.3108 138.928 46.6379 137.273 45.8241Z" fill="black"/>
<path fill-rule="evenodd" clip-rule="evenodd" d="M157.179 92.0215C155.455 87.9831 151.693 85.015 147.361 83.9299C144.18 83.1351 140.842 83.1605 137.599 83.4759C135.9 83.64 134.078 83.7745 132.477 84.4054C131.109 84.9445 129.995 85.9633 129.157 87.1593C128.16 88.5765 127.482 90.1985 127.005 91.861C126.938 92.0974 126.874 92.3355 126.815 92.5749C127.022 93.8292 127.462 94.8969 128.624 95.6855C129.757 96.4556 131.11 96.7706 132.459 96.8825C132.591 96.819 132.719 96.7538 132.836 96.6868C134.937 95.4839 136.416 92.6409 139.069 93.0257C141.436 93.3692 142.994 96.3475 144.402 98.094C148.92 98.6205 153.435 97.2628 157.112 94.679C157.298 93.7947 157.309 92.9029 157.179 92.0215ZM123.744 88.958C124.105 87.9436 124.561 86.9613 125.1 86.0358C126.884 82.9752 129.623 80.5366 132.874 79.1427C140.565 75.8496 150.516 78.1709 156.727 83.5718C158.849 85.4181 160.994 88.1312 161.643 91.0496C161.837 91.088 162.02 91.1888 162.17 91.3307C166.658 88.5055 171.279 85.7873 174.895 81.8709C177.521 79.0254 179.348 75.658 180.466 71.9576C180.557 71.653 181.049 71.6975 181.034 72.0345C181.03 72.1134 181.025 72.192 181.021 72.2709C181.068 72.1259 181.289 72.2005 181.306 72.3412C181.908 76.8364 182.66 81.6024 181.967 86.121C181.553 88.8173 180.328 90.7913 178.691 92.9227C176.936 95.2074 174.95 97.3325 172.92 99.3703C171.631 100.664 170.285 102.156 168.707 103.104C166.872 104.206 164.791 105.044 162.832 105.894C160.84 106.762 158.818 107.563 156.757 108.258C152.639 109.652 148.382 110.616 144.05 111.038C140.582 111.374 136.619 111.741 133.295 110.437C130.748 109.437 128.692 107.63 127.061 105.455C125.285 103.087 123.882 100.39 123.106 97.5456C122.299 94.591 123.574 89.4344 123.744 88.958Z" fill="black"/>
<path fill-rule="evenodd" clip-rule="evenodd" d="M119.379 78.6425C119.781 73.5574 126.193 71.4033 129.386 70.7645C140.021 68.2645 149.069 74.6788 161.75 74.81C163.03 74.83 166.69 74.6141 168.392 74.1646C177.027 72.2024 185.654 70.1151 194.127 67.5416C195.373 67.8333 195.742 69.4594 194.886 70.3858C186.771 73.2638 174.355 75.8409 167.798 76.1343C167.924 84.6042 172.396 93.1209 178.57 97.805C168.75 108.665 145.846 112.236 132.368 106.536C125.737 104.546 118.74 86.7333 119.379 78.6425Z" fill="white"/>
<path fill-rule="evenodd" clip-rule="evenodd" d="M194.813 67.798C195.178 67.7837 194.965 66.7191 194.142 66.8709C183.53 69.3529 170.308 74.0805 159.399 74.0458C151.375 73.7831 144.184 69.3139 136.115 69.2869C130.691 69.3908 123.775 70.1622 119.979 74.5146C114.972 90.3936 126.247 111.991 143.986 112.116L147.344 111.873C158.789 111.03 171.327 109.681 178.704 99.9708L178.762 100.02C179.865 99.2801 179.803 97.6817 178.866 96.8597L178.838 96.9035C178.82 96.8746 178.8 96.8469 178.781 96.8186L178.793 96.7813C178.432 96.4027 178.022 96.0487 177.65 95.7316L177.648 95.7378C172.108 91.1228 168.492 84.1445 168.283 76.9183C170.117 77.422 200.928 71.0345 195.428 69.4757C191.494 70.8056 187.537 72.0067 183.5 72.9627C183.432 72.9246 183.335 72.9346 183.298 73.0097C178.359 74.2251 173.321 74.9196 168.277 75.4819C168.282 75.2409 168.291 74.9999 168.304 74.7584C177.273 73.0123 186.067 70.4198 194.813 67.798ZM122.182 74.2423C140.58 64.9483 149.712 78.6791 167.505 74.8985C165.644 83.2036 170.24 92.157 176.484 97.5834C167.412 105.435 163.486 106.624 151.586 107.898L150.032 108.083C147.694 108.36 145.335 108.618 142.99 108.659C130.828 107.774 121.639 95.1203 120.263 83.6558L120.256 83.3391C120.194 80.4296 120.328 77.3498 121.617 74.6843C121.854 74.6017 122.061 74.4529 122.182 74.2423ZM147.795 81.5381C147.159 81.395 146.51 82.0887 146.904 82.6961C148.178 84.6603 151.292 85.4213 153.47 85.73C155.993 86.0875 158.438 85.8056 160.834 84.9452C160.962 84.899 160.953 84.672 160.8 84.6903C158.524 84.9611 156.179 84.7629 153.968 84.1608C151.726 83.7241 149.916 82.2333 147.795 81.5381ZM130.508 80.1233C130.519 79.75 128.684 80.8299 128.394 80.9754C126.152 82.321 123.558 82.4196 121.087 82.9478C120.51 83.1688 120.511 83.9013 121.087 84.1223C124.172 84.9426 128.854 82.7896 130.508 80.1233Z" fill="black"/>
<path fill-rule="evenodd" clip-rule="evenodd" d="M120.267 66.9482C120.869 68.5868 121.785 70.2927 122.906 71.6718C127.44 75.5111 131.845 73.3854 134.082 68.1819C134.932 64.5046 132.675 60.5435 130.284 57.8384C126.83 54.377 121.194 56.1936 119.606 60.3084C119.51 60.8416 119.452 61.3734 119.424 61.9036C119.457 63.6263 119.664 65.0986 120.267 66.7353V66.9482ZM163.846 63.6435C157.874 56.5391 146.7 56.1593 146.985 67.0937C148.268 80.9341 169.873 77.537 163.846 63.6435ZM118.388 57.717C118.597 57.3625 118.83 57.0195 119.083 56.6914C119.177 56.6356 119.231 56.1408 119.575 56.1041C124.18 51.0242 132.269 53.9064 135.192 58.9683C135.726 59.6083 136.161 60.3576 136.483 61.1492C139.362 60.621 142.72 60.7236 145.398 61.8114C148.054 54.8763 156.095 54.2571 161.394 57.2203C164.69 58.8412 166.827 62.2357 170.032 64.1005C177.567 64.6428 185.654 62.9545 193.053 64.8446C198.888 66.0578 194.01 69.0125 193.031 67.0406C186.056 64.9796 177.791 66.7213 170.548 66.2569C169.795 67.5308 168.351 68.5732 166.912 68.5287C165.357 82.3089 145.261 80.0239 144.568 67.7741C143.782 66.5309 142.804 65.3411 141.404 64.5665C140.868 64.4556 140.351 64.3115 139.878 64.0883C139.069 63.9742 137.823 64.317 137.079 64.9902C134.531 80.2811 119.849 78.5003 117.225 65.1048C117.173 65.0516 117.027 64.8519 116.915 64.5314C116.017 63.344 113.818 62.9026 114.17 60.898C114.482 58.8929 117.014 58.9168 118.388 57.717Z" fill="black"/>
</svg>
